<?xml version="1.0" encoding="UTF-8" standalone="no"?>
<svg
   xmlns:dc="http://purl.org/dc/elements/1.1/"
   xmlns:cc="http://creativecommons.org/ns#"
   xmlns:rdf="http://www.w3.org/1999/02/22-rdf-syntax-ns#"
   xmlns:svg="http://www.w3.org/2000/svg"
   xmlns="http://www.w3.org/2000/svg"
   xmlns:sodipodi="http://sodipodi.sourceforge.net/DTD/sodipodi-0.dtd"
   xmlns:inkscape="http://www.inkscape.org/namespaces/inkscape"
   inkscape:version="1.0 (4035a4fb49, 2020-05-01)"
   sodipodi:docname="grammarly.svg"
   id="svg10"
   version="1.1"
   style="width: 100%; height: 100%; transform: translate3d(0px, 0px, 0px);"
   preserveAspectRatio="xMidYMid meet"
   height="156"
   width="156"
   viewBox="0 0 156 156">
  <metadata
     id="metadata16">
    <rdf:RDF>
      <cc:Work
         rdf:about="">
        <dc:format>image/svg+xml</dc:format>
        <dc:type
           rdf:resource="http://purl.org/dc/dcmitype/StillImage" />
      </cc:Work>
    </rdf:RDF>
  </metadata>
  <defs
     id="defs14" />
  <sodipodi:namedview
     inkscape:current-layer="svg10"
     inkscape:window-maximized="1"
     inkscape:window-y="0"
     inkscape:window-x="0"
     inkscape:cy="187.80693"
     inkscape:cx="173.80568"
     inkscape:zoom="2.1106815"
     showgrid="false"
     id="namedview12"
     inkscape:window-height="1009"
     inkscape:window-width="1920"
     inkscape:pageshadow="2"
     inkscape:pageopacity="0"
     guidetolerance="10"
     gridtolerance="10"
     objecttolerance="10"
     borderopacity="1"
     bordercolor="#666666"
     pagecolor="#ffffff" />
  <g
     id="g8"
     style="display:block"
     opacity="1"
     transform="translate(78.047162,78.138537)">
    <g
       id="g6"
       transform="scale(6)"
       opacity="1">
      <path
         id="path2"
         d="m 2.845,1.716 c -0.27,0 -0.5,0.1 -0.68,0.32 -0.19,0.2100001 -0.26,0.4500001 -0.2199999,0.72 0.04,0.2100001 0.1499999,0.3899999 0.33,0.52 C 2.4649999,3.4159999 2.655,3.4860001 2.875,3.4860001 c 0,0 1.3899999,0 1.3899999,0 0,0 0.8099999,-0.09 0.8099999,-0.09 C 4.4349999,4.3260002 3.595,4.9959998 2.5350001,5.4159999 1.485,5.8260002 0.345,5.9359999 -0.875,5.7459998 -1.875,5.5960002 -2.7750001,5.1960001 -3.5650001,4.566 -4.3649998,3.9460001 -4.9450002,3.1659999 -5.3150001,2.2360001 -5.7150002,1.166 -5.855,0.13600001 -5.7150002,-0.87400001 c 0.1500001,-0.97999999 0.5,-1.85999999 1.04,-2.63999989 0.54,-0.77 1.2400003,-1.3899999 2.0900002,-1.8499999 0.87,-0.4700003 1.81000002,-0.7000003 2.82,-0.7000003 1.06,0 2.0300001,0.27 2.91,0.8000002 0.8800001,0.5299997 1.5900001,1.1599998 2.1399998,1.8999998 0,0 0,0.06 0,0.06 C 5.415,-3.1140001 5.605,-2.994 5.8449998,-2.944 6.085,-2.894 6.3150001,-2.944 6.5250001,-3.0739999 6.7249999,-3.214 6.8449998,-3.3940001 6.895,-3.6140001 c 0.05,-0.22 0.01,-0.4399998 -0.1,-0.6499998 -0.7400003,-1.1399999 -1.73,-2.04 -2.98,-2.7000003 C 2.565,-7.6240001 1.195,-7.9039998 -0.29500009,-7.8039999 -1.255,-7.744 -2.165,-7.5139999 -3.0150001,-7.1040001 -3.885,-6.704 -4.645,-6.1739998 -5.2950001,-5.5139999 c -0.6500001,0.6599998 -1.1700001,1.4099998 -1.5499997,2.26 -0.4100003,0.8599998 -0.6300001,1.7599999 -0.6700001,2.69999988 -0.08,1.13 0.08,2.18000002 0.4600001,3.16999992 0.3899998,0.9800001 0.94,1.8500002 1.6399998,2.59 0.7100001,0.75 1.56,1.3299999 2.54,1.7600002 0.97,0.4200001 2,0.6399998 3.11,0.6399998 1.18,0 2.2700001,-0.2399997 3.2800001,-0.71 C 4.5149999,6.4159999 5.375,5.776 6.0949998,4.9660001 c 0,0 -0.1799998,0.9299998 -0.1799998,0.9299998 0,0 0,0.8400002 0,0.8400002 0,0.21 0.07,0.4099998 0.21,0.5900001 0.1300001,0.1899996 0.3200002,0.2999997 0.5500002,0.3399997 0.27,0.05 0.5099997,-0.01 0.7199998,-0.1900001 0.2199998,-0.19 0.3200002,-0.4099998 0.3200002,-0.69 0,0 0,-5.0999998 0,-5.0999998 0,0 -4.8700002,0 -4.8700002,0 0,0 0,0.03 0,0.03 z M 0,13 C -1.8,13 -3.48,12.66 -5.0500002,11.98 -6.6399999,11.31 -8.0200005,10.38 -9.1999998,9.1999998 -10.38,8.0200005 -11.31,6.6399999 -11.98,5.0500002 -12.66,3.48 -13,1.8 -13,0 c 0,-1.8 0.34,-3.48 1.02,-5.0500002 0.67,-1.5899997 1.6,-2.9700003 2.7800002,-4.1499996 C -8.0200005,-10.38 -6.6399999,-11.31 -5.0500002,-11.98 -3.48,-12.66 -1.8,-13 0,-13 c 1.8,0 3.48,0.34 5.0500002,1.02 1.5899997,0.67 2.9700003,1.6 4.1499996,2.7800002 C 10.38,-8.0200005 11.31,-6.6399999 11.98,-5.0500002 12.66,-3.48 13,-1.8 13,0 13,1.8 12.66,3.48 11.98,5.0500002 11.31,6.6399999 10.38,8.0200005 9.1999998,9.1999998 8.0200005,10.38 6.6399999,11.31 5.0500002,11.98 3.48,12.66 1.8,13 0,13 Z"
         fill-opacity="1"
         fill="#15c39a" />
      <g
         id="g4"
         opacity="1" />
    </g>
  </g>
</svg>
